<?xml version="1.0" encoding="UTF-8"?>
<svg width="48px" height="48px" viewBox="0 0 48 48" version="1.1" xmlns="http://www.w3.org/2000/svg">
    <title>AWS-SNS-Icon</title>
    <g stroke="none" fill="none" stroke-width="1">
        <path d="M24,44 C12.954,44 4,35.046 4,24 C4,12.954 12.954,4 24,4 C35.046,4 44,12.954 44,24 C44,35.046 35.046,44 24,44 Z" fill="#FFFFFF"></path>
        <path d="M24,4 C35.046,4 44,12.954 44,24 C44,35.046 35.046,44 24,44 C12.954,44 4,35.046 4,24 C4,12.954 12.954,4 24,4 Z M24,6.5 C14.335,6.5 6.5,14.335 6.5,24 C6.5,33.665 14.335,41.5 24,41.5 C33.665,41.5 41.5,33.665 41.5,24 C41.5,14.335 33.665,6.5 24,6.5 Z" fill="#56C2A5"></path>
        <circle fill="#56C2A5" cx="24" cy="21" r="8"></circle>
        <path d="M33.7,30.8 L24,37 L14.3,30.8 C17.5,37.4 30.5,37.4 33.7,30.8 Z" fill="#56C2A5"></path>
        <path d="M24,17 L24,25 M20,21 L28,21" stroke="#FFFFFF" stroke-width="2" stroke-linecap="round"></path>
    </g>
</svg> 