<?xml version="1.0" encoding="UTF-8"?>
<svg width="48px" height="48px" viewBox="0 0 48 48" version="1.1" xmlns="http://www.w3.org/2000/svg">
    <title>AWS-SQS-Icon</title>
    <g stroke="none" fill="none" stroke-width="1">
        <path d="M24,44 C12.954,44 4,35.046 4,24 C4,12.954 12.954,4 24,4 C35.046,4 44,12.954 44,24 C44,35.046 35.046,44 24,44 Z" fill="#FFFFFF"></path>
        <path d="M24,4 C35.046,4 44,12.954 44,24 C44,35.046 35.046,44 24,44 C12.954,44 4,35.046 4,24 C4,12.954 12.954,4 24,4 Z M24,6.5 C14.335,6.5 6.5,14.335 6.5,24 C6.5,33.665 14.335,41.5 24,41.5 C33.665,41.5 41.5,33.665 41.5,24 C41.5,14.335 33.665,6.5 24,6.5 Z" fill="#9D5FFF"></path>
        <rect fill="#9D5FFF" x="14" y="18" width="20" height="12" rx="1"></rect>
        <rect stroke="#FFFFFF" stroke-width="1.5" x="15" y="19" width="18" height="10" rx="1"></rect>
        <path d="M32,24 L28,21 L28,27 L32,24 Z" fill="#FFFFFF"></path>
        <path d="M16,24 L20,27 L20,21 L16,24 Z" fill="#FFFFFF"></path>
    </g>
</svg> 